<svg id="Layer_1" xmlns="http://www.w3.org/2000/svg" viewBox="0 0 261.9 212.3"><style>.st0{fill:#fff}.st1{fill:#c03}.st2{fill:url(#SVGID_1_)}.st3{fill:#a1bd46}.st4{fill:#a0bc46}.st5{fill-rule:evenodd;clip-rule:evenodd;fill:#006133}.st6{fill:#ae0035}</style><path class="st0" d="M306.8 10.1l-44.7 131.3c-81.2 63.8-181.8 88.3-274.6 56.7s-157.6-112.4-183-212.5l44.7-131.3L306.8 10.1z"/><path class="st1" d="M262.1 141.4c-81.2 63.8-181.8 88.3-274.6 56.7s-157.6-112.4-183-212.5c30.3 93.9 94.1 174.8 185.2 205.8 91.2 31.1 191.1 5.9 272.4-50z"/><linearGradient id="SVGID_1_" gradientUnits="userSpaceOnUse" x1="132.995" y1="955.528" x2="557.649" y2="955.528" gradientTransform="rotate(18.803 2664.034 -467.48)"><stop offset="0" stop-color="#eae8e6"/><stop offset="0" stop-color="#e2dfdc"/><stop offset=".065" stop-color="#d3d0ce"/><stop offset=".189" stop-color="#aca9ab"/><stop offset=".264" stop-color="#928f93"/><stop offset=".522" stop-color="#f5f5f5"/><stop offset=".587" stop-color="#e6e6e7"/><stop offset=".712" stop-color="#c0bfc1"/><stop offset=".876" stop-color="#858386"/><stop offset="1" stop-color="#d6d6d6"/><stop offset="1" stop-color="#aeaead"/></linearGradient><path class="st2" d="M227.8 152.5C161 195.2 75.6 208.2-6 180.4c-81.5-27.8-141.4-90.2-168.2-164.7 30.9 70.2 90.4 131 170.4 158.3 80.1 27.3 164.4 15.4 231.6-21.5z"/><path class="st3" d="M70.6 47.5V51h4.7v11.3h4.1V51h4.8v-3.5zm15.3 0h4v14.8h-4zm14.8 0v9.4c0 3.2-2.2 5.6-5.6 5.6-2.6 0-3.7-.8-3.7-.9l1.5-3.6c.4.3 1 .5 1.7.5 1.3 0 2.1-.8 2.1-1.7v-9.3h4zm12.9 7.4c0-2.3-1.4-3.9-3.9-3.9h-2.1v7.7h2.1c2.5 0 3.9-1.5 3.9-3.8m4.2 0c0 4.4-3.1 7.4-8.2 7.4h-5.9V47.5h5.9c5 0 8.2 2.9 8.2 7.4m18.2-7.5l-2 5.5-1 3.2-1-3.2-2.1-5.5h-4.5l6.2 14.9h2.5l6.1-14.9z"/><path class="st4" d="M152.2 54.8c0-2.4-1.6-4-3.8-4s-3.9 1.7-3.9 4 1.6 4.1 3.9 4.1c2.2 0 3.8-1.8 3.8-4.1m-11.8 0c0-4.4 3.4-7.7 8-7.7s7.9 3.2 7.9 7.7c0 4.4-3.4 7.7-7.9 7.7-4.6 0-8-3.4-8-7.7m29.2 0c0-2.4-1.6-4-3.8-4s-3.9 1.7-3.9 4 1.6 4.1 3.9 4.1c2.2 0 3.8-1.8 3.8-4.1m-11.7 0c0-4.4 3.4-7.7 8-7.7s7.9 3.2 7.9 7.7c0 4.4-3.4 7.7-7.9 7.7-4.7 0-8-3.4-8-7.7m22.1.3h2c1.5 0 2.4-.9 2.4-2.1 0-1.2-.9-2.2-2.4-2.2h-2v4.3zm1.7 3.4H180v3.8h-3.9V47.4h6.2c3.8 0 6.1 2.4 6.1 5.6 0 2.1-1.1 3.7-2.8 4.6l3.2 4.6h-4.6l-2.5-3.7z"/><path class="st5" d="M85.9 83.3c9.4 0-2.8 17.4-18.5 16.8 3.9-8.7 11.9-16.8 18.5-16.8m-6.3 25.6s-3.6 7.9-8.9 7.9c-1.8 0-5.4-.6-5.5-6.8 0-1.5.2-3.1.5-4.8 12.8-.8 32-8.7 32-21.8 0-10.5-22.5-10.6-37.6 15-8.8-4.2-4.8-13.8-2.6-16-5.1.8-10.6 4.7-10.6 11.9 0 5.1 4.1 8.7 10 10.3-6.1 13.5-2.4 21.6 5.4 21.6 6.9 0 13.7-7.6 13.7-7.6s-2.7 6.4-6.3 13.1c-3.6 6.7-8.1 11.1-12.6 8 6.5-.5 6.2-9.6.3-9.6-4.7 0-6.2 3.8-6.2 7.1s2.5 7.7 9.8 7.7c10.3 0 16.6-11.5 21.3-21.6 2.8-6.1 5.3-11.9 6.3-14.2h-9v-.2zm131.5-23.2c6.1 0-3.3 13.9-12.7 17.2-.1 0 5.8-17.2 12.7-17.2m-2.9 40.4c-2.5 0-1-5.1.6-9.9 1.6-4.6 2.9-8.9-1.3-8.9-6.1 0-13.2 9.2-13.2 9.2l1.4-4.8c.6-1.9 1.6-4.9 1.6-4.9 12-5.3 19.7-14.5 19.7-20.8 0-2-.9-4.9-5.1-4.9-7.1 0-15 7.8-20.2 23.4-6.7 19.8-14.8 21.4-16.7 21.4-3 0-4.6-2.9-4.6-6.2 0-7.3 6.8-11.7 8.9-9.8-2 0-3.4 1.7-3.4 3.5 0 2.2 1.4 3.6 3.3 3.6 3.2 0 5.1-3.8 5.1-6.6s-2-5.2-6-5.2c-9.3 0-14.1 12.1-14.1 18.5 0 4.3 1 9.2 6.5 9.2 7.4 0 15-10.9 15-10.9l-3.5 10.2h7c.7-2.4 6.4-17.6 11.8-17.6 5.5 0-7.7 18.4 1.7 18.4 7.6 0 11.8-11 11.8-11l-1.7-1c.1.1-2 5.1-4.6 5.1m-56.2 3.3c-3.2 0-4.1-2.5-3.4-4.6 3.4-2.1 2.7-5.7 1.5-7.1 1.3-1.9 4.3-7.3 4.3-7.3s-.5 1.7 0 5.4 1.8 6.2 1.8 8.5c-.1 2.3-1.7 5.1-4.2 5.1m-37.4-3.1c-1.8 0-4.8-1.5-4.8-6.3 0-5.4 3.2-10.3 6.4-10.3 1.4 0 1.8.9 1.8.9s-1.7 2.1-1.7 5.6c0 5.3 3.7 5.6 3.7 5.6-.8 2-2.8 4.5-5.4 4.5m28.2-29.2c3.4-6.2 6.2-9.4 8.4-9.4s2 3.7-1.6 10c-5.5 9.7-13 13.7-13 13.7 1.8-5.9 4.1-10.6 6.2-14.3m15.6 9.2c2.7 1.3 6.4-.1 6.4-4.1 0-2.4-1.5-3.7-3.4-3.7-3.6 0-5.5 4.8-7.4 8.6-2 3.9-5.7 9.3-5.7 9.3s-2.5-1-4.7 1.5c-1.9 2.1-1.5 6-1.5 6s-1.5 1.6-3.8 1.6-3.3-1.8-3.3-4.8c0-2.5.7-5.1.7-5.1s5.4-3 10.5-8.1c5.7-5.6 11.2-14.8 11.2-21.5 0-4.6-2.5-4.8-3.8-4.8-1.7 0-8.7 1.3-16.5 14.9-6.3 11-8.7 20-8.7 20s-1 .9-2.9.9c-.8 0-1.1-.3-1.1-.3s.8-1.8.8-3.9-.5-3.9-2.7-3.6c0 0-1.9-3.9-6.5-3.9-3 0-6.1 1.6-9 5.2-2.2 2.6-4.4 6.1-4.4 13 0 0-1.4 1.8-3.5 1.8s-4-1.9-4-4.9c0-4 3.5-7.8 6.2-9.9 2-1.5 3.5-2.1 3.5-2.1l-1.2-2.5s-2.5 1.9-4.4 1.9-2.8-1.2-2.8-1.2 2.2-1.4 2.2-4.4c0-2.9-2.1-4-3.8-4-1.7 0-5.2 1.3-5.2 6.3 0 6.5 6.5 7 6.5 7s-9.4 7.2-9.4 15.3c0 5 4.3 5.6 5.7 5.6 5.8 0 10.5-7.2 10.5-7.2s.8 7.6 7.6 7.6c9.2 0 12.5-10.9 12.5-10.9s.8.1 1.9 0c1.2-.1 2.1-.6 2.1-.6s-1.7 11.4 6 11.4c5.3 0 9.6-5.9 9.6-5.9s2.1 6.1 8.8 6.1S162 126.7 162 121c.2-7.8-5.8-13.4-3.6-14.7"/><path class="st0" d="M135.4 81.8c0 8.3-6.7 15-14.9 15s-14.9-6.7-14.9-15 6.7-15 14.9-15c8.3 0 14.9 6.7 14.9 15"/><path class="st6" d="M125.4 75.7v1.7h.8l.2-.1.2-.1.1-.1v-.2l.1-.1v-.5l-.1-.1-.1-.2-.1-.1-.1-.1h-.2l-.2-.1h-.2z"/><path class="st6" d="M120.5 95.7c-7.6 0-13.7-6.2-13.7-13.9 0-7.6 6.2-13.8 13.7-13.8 7.6 0 13.8 6.2 13.8 13.8 0 7.7-6.2 13.9-13.8 13.9m0-28.9c-8.2 0-15 6.8-15 15.1s6.7 15.1 15 15.1 15-6.8 15-15.1-6.7-15.1-15-15.1"/><path class="st6" d="M125.5 73.5h-.1V75l.1.1.3-.1h.4l.2-.1.1-.1v-.2l.1-.1V74l-.1-.1v-.2l-.1-.1h-.1l-.2-.1h-.4zm-8.2 16.6l.4.2-.2-.7zm4.1-7.2l.1.1.1-.1h-.1v-.1l.1-.1h.2l.1.1.2.1.2.1v-.1h-.1v-.1h-.1v-.1l-.1-.1h.2l.2-.1h.1l.2.1h.2v.1h.1v.1h.1v-.2h-.1l-.1-.1-.1-.1.1-.1h.7l.1-.1v-.1h-.3l-.3.1h-.3V82l.1-.1h.1l.1-.1v-.1h.1-.3l-.1.1-.1.1v.2l-.2.1-.1.1h-.2l-.1.1h-.2v-.2h.1v-.1l.1-.1.1-.1v-.1l-.2.1-.1.2-.1.2-.1.2h-.3v-.2h.1v-.1h-.1l-.1.1-.1.1v.2h-.3l-.1-.4v-.6l.2-.3h.1v-.1h-.1v.1h-.1l-.1.1-.1-.1V81l.3-.2.1-.1.1-.1v-.2l.1-.1v-.1l-.1.1-.1.1-.1.2v.1l-.1.1-.2.1v-.6l.2-.3.2-.3v-.1h-.1l-.1.1v.1l-.1.1-.1.1v-.6l-.1-.3V79h-.1v1.1h-.1V80h-.2v-.1l-.1-.1-.1.1.1.1.1.1h.1l.1.1.1.1v.6l-.1-.1-.1-.1-.1-.1v-.1.2l.1.1v.1h.1l.1.1.1.1v.4l-.1-.1-.1-.1-.1-.1v-.1.3l.1.1v.1l.2.1v.8l-1.1-.1-.1-.1-.1-.1v-.1l-.1-.1-.1-.1v.2l.1.1.1.2h-.3l-.3-.3h-.1V82h-.2l.1.1h.1v.1l.1.1v.1h-.6v-.1h-.1v-.1h-.1v.1l.1.1-.1.1h-.5v.2h.2l.2-.1h.3v.3h.1l.1-.1v-.1l.1-.1h.8v.1l-.1.1-.1.1-.1.1h-.1v.1h.2l.1-.1.1-.1.1-.1.1-.1.1-.1h.2l.1.1-.1.1v.3h.1V83l.1-.1.1-.1.2-.1h.5l.2.1h.4zm2.3 7.4l.4-.2-.2-.5z"/><path class="st6" d="M131 86.5l-.1.2-.1.3-.1-.1-.1-.2-.2-.2-.1-.1v-.8l-.1-.2.3.1.2.1.1.2.2.2.1.2v.3h-.1zm-.5 1.1v.1l-.1.1-.1.1-.1.1-.1.2-.1.2-.1-.2v-.4l.1-.3.1-.3.2-.3.2.2.1.1.1.1v.3h-.2zm-.9-.9l-.1.2-.2-.1-.2-.1-.3-.2-.3-.1-.2-.2-.2-.2-.1-.2.2-.2.2-.1.2-.1.2-.1.2-.1.1-.2.2-.2.2.3.1.1.1.1.1.1.1.1v.7l-.1.2-.1.1-.1.2zm-.1 2l-.2-.1-.2-.1-.2-.1-.2-.2-.2-.2.2-.2.2-.2.1-.2.1-.2.1.2.1.2v.4l.1.2.1.2v.3zm-.9.1l-.1.2-.1.2-.2.2-.3.2-.2-.1-.2-.1-.2-.1-.1-.1-.1-.1v-.3l.1-.1.3-.3.1.1.1.1.1.1.1.1v-.1l.1-.1.1-.1.1-.2.3.3.1.1v.1zm-1.9-.4l-.2.2-.2.1-.2.1.1-.2.1-.2v-.8l.1-.2.1.2.1.2.2.2h.2l-.2.2-.1.2zm-.8-1.3l-.1-.2-.1-.2-.1-.2-.1-.2v-.7l.1-.1.1-.1.1-.1.1-.1.2-.3.2.2.2.1.2.1.2.1.3.2.3.2-.1.3-.1.2-.2.2-.3.2-.3.2-.2.1-.4.1zm-.2 1v.2l-.1.2-.3-.3-.1-.1-.1-.1-.1-.1v-.4l.1-.1.1-.1.1-.2.2.3.1.3.1.3v.1zm-.9-2.9l-.3.1-.2.1.1-.3v-.5l.1-.2.1-.2.1-.2.2-.1.2-.1.3-.1h.4v.3l-.1.3-.1.2-.1.2-.2.2-.2.1-.3.2zm-.4 1.3v-.4l.1-.2.2-.2.2-.2v.3l.1.3v.4l-.1.3-.1.2-.1.1-.2-.2-.1-.2v-.2zm3.5-1.3l-.1.1-.1.2-.2-.2-.2-.2-.3-.1-.1-.1-.3-.2-.2-.2-.1-.2-.1-.2v-.5l.4-.1.3-.1.3-.2.3-.2.3.2.3.2.3.1.4.1.1.3v.2l-.1.2-.1.2-.2.2-.2.2-.1.1-.2.1-.1.1zm-1 2l-.1-.2.3-.2.3-.2.3-.3.3.3.3.2.4.2-.1.2-.1.1-.1.1-.1.1-.1.1-.2.2-.2.2-.2-.2-.2-.1-.1-.1-.1-.1-.1-.1-.2-.2zm-1.4 4l-.2-.2h-.3l-.4.2-.3.2-.6.4h-.3l-.1-.1-.1-.1-.1-.1-.1-.2v-.4l.1-.1.1-.1.5-.3.1-.3.2-.9-2.7-4.2v6.6l.1.2v1.5l-.1.1h-1.1l-.1-.1v-8.5l-2.7 4.2.2.9.1.3.4.3h.1v.6l-.1.2-.1.1-.1.1-.1.1h-.3l-.6-.4-.3-.2-.4-.2h-.4l.1-.4.1-.3.1-.2.1-.2.1-.1.1-.1.1-.1.4-.7.3-.4 1.1-1.7 1-1.6.2-.3.2-.3.1-.2.1-.2v-.1l.1-.2v-.5l-.1-.2v-.2h-.2l-.1.1-.1.1-.1.1-.1.1-.1.1-.2.1-.2.1-.2.1v-.4h-.4l-.2.1-.3.1h-.6v-.1h.2v-.1h-.9v-.1l.1-.1.1-.1.1-.1v-.1h-.2l-.1-.1-.2-.1-.2-.1V82l.2-.1.2-.1.2-.1h.2v-.1l-.1-.1-.1-.1.1-.1h.8v-.2l-.1-.1h.4l.1.1.1.1h.1v-.4l-.2-.2-.2-.3-.3-.2-.3-.2-.4-.1.3.2-.4-.1h-.8l-.4.1-.4.2-.3.2-.3.3-.3.3-.2.3-.2.3h.5l.3.1.3.1.3.2.3.3.3.3.3.4.3.5-.3-.1-.3-.1-.3-.1-.4-.1h-.2l-.2-.1-.2-.1-.2-.1-.2-.1-.2-.2-.2-.2-.2-.2V82l-.1.1-.2.2-.2.2-.2.1-.3.1-.2.1-.2.1h-1.4l-.2.1.4-.4.3-.3.3-.3.3-.2.3-.2.3-.1.3-.1h.6l.2.1V81l.1-.4.2-.3.2-.3.3-.3.2-.2.3-.2.3-.2.3-.1.3-.1h1l.3.1.3.1.3.1.3.2.3.2.3.3.2.3.2.3.1.3v.2l.3.2.1.1.1.1.1.1.1.1h.2v-.3l-.1-.1-.1-.1-.1-.1-.1-.1-.1-.1-.1-.1-.1-.1-.1-.1v-.2h.4v-.7.4h.2l.1.1h.1l-.1-.2v-.7h.2v.1l.1-.1.1-.3.1-.3.2-.2v-.1h.1l.1.1.1.2.1.2.2.2.1.2v.1h.2v-.1l.1-.1.1.2v.4h.4v.4l-.1.2-.1.2h.3v.1l-.1.2-.1.2-.2.1-.2.1-.2.1-.1.2v.3h.2l.2-.2.2-.2.2-.2v-.1l.1-.3.2-.3.2-.3.3-.3.3-.2.3-.2.3-.1.3-.1.5-.1h.8l.3.1.3.1.3.2.3.2.2.2.2.3.2.3.2.3.1.4.1.4h.6l.3.1.3.1.3.2.3.2.3.3.3.4.4.4-.3-.1h-.3l-.3-.1h-1.1l-.2-.1-.3-.1-.2-.1-.2-.2-.2-.2-.1-.1v.1l-.2.2-.2.2-.2.2-.2.1-.2.1-.2.1-.2.1h-.2l-.3.1h-.5l-.2.1-.2.1.4-.5.3-.4.3-.3.3-.3.3-.2.3-.1.3-.1h.7l-.2-.4.1-.5-.3-.3-.3-.3-.3-.2-.3-.2-.4-.1h-1.2l-.4.1-.3.1-.4.2-.3.3-.2.3.3-.1h.1l-.1.2h.7v.1l-.1.1-.1.1v.1h.5l.1.1h.1l.1.1.1.1.1.1-.2.2-.2.1-.2.1-.2.1.1.1.2.1.1.2-.1.1h-.2l-.2.1h-.8.2l.1.1.1.1-.2.1h-.3l-.3-.1-.3-.1-.2-.1.1.1v.2l-.2-.1-.1-.1-.1-.1-.1-.1-.1-.1-.1-.1h-.1v.7l.1.2.1.2.1.2.1.2.4.6 1 1.6L124 88l.3.4.4.7.1.1.1.1.1.1.1.1.1.2.1.2.1.2.1.3v.8zm-9.7-3l-.3.3-.1-.2v-.4l.1-.3.1-.3.2-.3.1.2.1.1.1.1v.4l-.1.2-.1.1-.1.1zm.2-1.7v-.4l.1-.2v-.4l.2.2.2.2.1.2v.4l-.1.2-.1.2-.2.3-.1-.1-.1-.2v-.4zm.6-2.1l.1.2v.2l.1.6-.3-.2-.3-.1-.2-.1-.2-.2-.2-.2-.1-.2-.1-.2v-.5h.3l.3.1.2.1.2.1.1.1.1.3zm-1.4 2.6l-.2-.2-.2-.1-.3-.2-.3-.2-.2-.2-.2-.2-.1-.3.3-.2.3-.2.2-.1.2-.1.2-.1.2-.2.2.3.1.1.1.1.1.1.1.1v.5l-.1.2-.1.2-.1.1-.1.2-.1.4zm-.1 1.8l-.2-.1-.2-.1-.2-.2-.2-.2-.2-.2.3-.2.2-.2.1-.2.1-.2.1.2v.9l.1.2.1.3zm-1 0l-.1.2-.1.2-.2.2-.3.2-.2-.2-.2-.1-.1-.1-.1-.1-.1-.1v-.3l.1-.1.3-.3.1.2.1.1.1.1.1.1.1-.1.1-.1.1-.1.1-.1.3.3.1.1h-.2zm-1.6-.6l-.2.2-.2.1-.2.1-.2.1.1-.2.1-.2v-.6l.1-.2.1-.2.1.2.1.2.2.2.2.2-.2.1zm0-1.3l.4-.2.3-.2.3-.3.3.3.3.2.3.2-.1.2-.1.1-.1.1-.1.1-.1.1-.2.1-.2.2-.2-.2-.2-.2-.1-.1-.1-.1-.1-.1-.1-.2h-.2zm1.4-1.8l-.2.1-.2.2-.2-.2-.2-.1-.2-.1-.1-.1-.2-.2-.2-.2-.1-.2-.1-.2v-.2l.1-.3.4-.1.4-.1.3-.2.3-.2.3.2.3.2.3.1.4.1v.5l-.1.2-.1.2-.2.2-.3.2-.1.1-.3.1zm-2.3 1.8l-.1-.2-.1-.2-.1-.2-.1-.2v-.7l.1-.1.1-.1.1-.1.1-.1.2-.3.2.2.2.2.2.1.2.1.3.2.3.2-.2.3-.2.2-.2.2-.3.1-.3.1-.2.1-.2.2zm-.2.7v.4l-.1.2-.1-.2-.1-.2-.1-.1-.1-.1-.1-.1v-.3l.1-.1.1-.1.1-.1.1-.2.2.3.1.3-.1.3zm-.9-.9l-.2.2-.1.1-.1-.3-.1-.2v-.2l.1-.2.1-.2.1-.2.2-.1.3-.1-.1.2v.8l-.1.1-.1.1zm-.3-1.8v-.3l.1-.2.1-.2.1-.2.1-.1.2-.1.2-.1h.6v.3l-.1.2-.1.2-.2.2-.2.1-.2.1-.3.1-.3.1-.3.1.3-.2zm2.4-9.8l.1-.4.1-.4.2-.3.2-.3.2-.3.3-.2.3-.2.3-.1.4-.1.4-.1h.8l.3.1.3.1.2.1.3-.3h.5v.1l.1 2v.1h-.5v-.1l-.1-.4-.1-.3-.2-.3-.2-.2-.2-.2-.2-.1-.2-.1h-.7l-.1.1-.1.1-.1.1-.1.1-.1.2-.1.2-.1.2v2.1l.1.3.1.2.1.2.1.1.2.1.2.1h.4l.2-.1.2-.1.1-.1.1-.2.1-.2v-.7h-.7v-.6h2.6v.8h-.6v2h-.5V78l-.3-.5-.2.2-.3.2-.3.1-.4.1h-.8l-.4-.1-.4-.2-.3-.2-.3-.2-.2-.3-.2-.3-.1-.3-.1-.4-.1-.4v-.4l-.2-.2zm6.5 2.1h.3l.1.1.1.1.1.1.1.2.1.1v.4h-.2l-.1-.1-.1-.1-.1-.1-.1-.1v-.5l-.2-.1zm.1-1.5h.3l.1.1.1.1.1.1.1.2v.6h-.3l-.1-.1-.1-.1-.1-.1-.1-.1v-.7zm.1-1.4l.1.1h.2l.1.1.1.1.1.1.1.1v.5h-.2l-.1-.1-.1-.1-.1-.1-.1-.1v-.5l-.1-.1zm0-1.5h.3l.1.1.1.1.1.1.1.2v.6h-.1l-.1-.1-.1-.1-.1-.1-.1-.1-.1-.1v-.5l-.1-.1zm.1-1.2h.3l.1.1.1.1.1.1.1.1v.5h-.2l-.1-.1-.1-.1-.1-.1v-.5l-.2-.1zm.8 2.4v-.2l.1-.1.1-.1.1-.1.1.1.1.1.1.1.1.1v.5l-.1.2-.1.1-.1-.1h-.2l-.1.1-.1-.1-.1-.2v-.2l.1-.2zm0-1.4v-.2l.1-.1v-.1l.1-.1h.3v.1l.1.1.1.1v.5l-.1.2-.1.1-.1-.1h-.2l-.1.1-.1-.1v-.5zm0-1.4v-.3l.1-.1.1-.1v-.1h.1v.1l.1.1.1.1v.6l-.1.2-.1.1-.1-.1h-.2l-.1.1v-.1l-.1-.2v-.2l.2-.1zm-.1 6.1v-.5l.1-.1.1-.1.1-.1.1-.1v-.1l.1.1.1.1.1.1.1.1v.7l-.1.3-.1.1-.1-.1h-.2l-.1.1-.1-.1-.1-.3v-.1zm.8-1.6v.2l-.1.3-.1.1-.1-.1h-.2l-.1.1-.1-.1-.1-.3v-.6l.1-.1.1-.1.1-.1.1-.1.1.1.1.1.1.1.1.1v.4zm.1-3.5V72l.1-.1.1-.1.1-.1h.3l.1-.1v.6l-.1.1-.1.1-.1.1-.1.1h-.2v-.2l-.1-.2zm.8.6l.1.2v.4l-.1.1-.1.1-.1.1-.1.1h-.2v-.6l.1-.2.1-.1.1-.1.1-.1h.1v.1zm-.7 2.4v-.3l.1-.1.1-.1.1-.1.1-.1h.3v.7l-.1.1-.1.1-.1.1-.1.1h-.2l-.1-.4zm.9.4v.6l-.1.1-.1.1-.1.1-.1.1h-.3V76l.1-.2.1-.1.1-.1.1-.1h.2l.1.1zm.1 1.5v.6l-.1.1-.1.1-.1.1-.1.1-.1.1h-.2v-.6l.1-.1.2-.1.1-.1.1-.1h.2v-.1zm1.1.5l.1-.1h.5v-3.9h-.7v-.7h3.7l.2.1.2.1.2.1.2.1.1.1.1.1.1.1v.7l-.1.2-.1.2-.2.2-.2.2-.2.1.2.1.2.1.2.2.2.2.1.2.1.2v.7l-.1.1-.1.2-.1.1-.1.1-.1.1-.2.1-.2.1-.3.1-.3.1h-3.7v-.3h.3zm7.5 6.6l.1.2.1.2.1.3.1.3-.3-.1-.3-.1-.3-.1-.2-.1-.2-.1-.1-.2-.1-.2-.1-.2v-.3h.6l.2.1.2.1.2.1v.1zm-10.2-15.5c-7.2 0-13.1 5.9-13.1 13.2 0 7.3 5.9 13.2 13.1 13.2s13.1-5.9 13.1-13.2c.1-7.3-5.8-13.2-13.1-13.2"/></svg>